<svg width="290" height="30" viewBox="0 0 290 30" fill="none" xmlns="http://www.w3.org/2000/svg">
<path d="M0 29.4697V23.2576H1.8963V6.21212H0V0H16.0048V6.21212H12.5156V23.2576H15.9289V19.7727H23.4762V29.4697H0Z" fill="#F37513"/>
<path d="M46.8129 23.2576V29.4697H36.8004V26.8939C36.2442 27.702 35.4604 28.4217 34.449 29.053C33.4629 29.6843 32.2493 30 30.8081 30C28.9118 30 27.42 29.495 26.3328 28.4848C25.2456 27.4747 24.702 26.048 24.702 24.2045C24.702 19.4318 28.7601 16.9823 36.8763 16.8561C36.8004 15.9975 36.4717 15.4167 35.8902 15.1136C35.3087 14.7854 34.3226 14.6212 32.932 14.6212C31.7942 14.6212 30.5679 14.7475 29.2531 15C27.9636 15.2273 26.7753 15.5429 25.6881 15.947V8.97727C27.0281 8.64899 28.482 8.38384 30.0496 8.18182C31.6172 7.9798 33.1469 7.87879 34.6386 7.87879C38.4059 7.87879 41.0987 8.56061 42.7169 9.92424C44.3351 11.2879 45.1441 13.3965 45.1441 16.25V23.2576H46.8129ZM36.8004 20.6061C35.6626 20.6061 34.7777 20.7576 34.1456 21.0606C33.5388 21.3636 33.2354 21.8687 33.2354 22.5758C33.2354 23.0051 33.3618 23.3586 33.6146 23.6364C33.8927 23.8889 34.272 24.0152 34.7524 24.0152C35.4098 24.0152 35.9155 23.7374 36.2694 23.1818C36.6234 22.6263 36.8004 21.8434 36.8004 20.8333V20.6061Z" fill="#F37513"/>
<path d="M72.9907 23.2576V29.4697H62.599V26.5152C60.7786 28.8384 58.503 30 55.7723 30C53.6737 30 52.0935 29.3434 51.0316 28.0303C49.9949 26.7172 49.4766 24.9116 49.4766 22.6136V14.6212H47.8079V8.40909H58.1996V20.8333C58.1996 21.6667 58.3766 22.2854 58.7306 22.6894C59.1098 23.0682 59.6661 23.2576 60.3993 23.2576C61.1325 23.2576 61.6761 23.0682 62.0301 22.6894C62.4094 22.2854 62.599 21.6667 62.599 20.8333V14.6212H60.551V8.40909H71.322V23.2576H72.9907Z" fill="#F37513"/>
<path d="M99.2184 23.2576V29.4697H87.2338V23.2576H88.8266V17.0455C88.8266 16.2121 88.6497 15.6061 88.2957 15.2273C87.9417 14.8232 87.4107 14.6212 86.7028 14.6212C85.1857 14.6212 84.4272 15.4293 84.4272 17.0455V23.2576H86.0201V29.4697H74.0355V23.2576H75.7042V14.6212H74.0355V8.40909H84.4272V11.3636C86.2477 9.0404 88.5232 7.87879 91.2539 7.87879C93.3525 7.87879 94.9201 8.53535 95.9567 9.84849C97.0187 11.1616 97.5496 12.9672 97.5496 15.2652V23.2576H99.2184Z" fill="#F37513"/>
<path d="M111.783 30C108.167 30 105.348 29.0657 103.325 27.197C101.303 25.303 100.291 22.5505 100.291 18.9394C100.291 15.3283 101.303 12.5884 103.325 10.7197C105.348 8.82576 108.155 7.87879 111.745 7.87879C113.49 7.87879 115.158 8.11869 116.751 8.59849C118.344 9.07828 119.583 9.62121 120.468 10.2273V17.7273H113.945V17.0455C113.945 16.2121 113.768 15.6061 113.414 15.2273C113.06 14.8232 112.503 14.6212 111.745 14.6212C110.278 14.6212 109.545 15.4293 109.545 17.0455V20.303C109.545 22.2727 110.67 23.2576 112.921 23.2576C115.019 23.2576 117.459 23.0303 120.24 22.5758V28.5227C119.381 28.9015 118.167 29.2424 116.599 29.5455C115.057 29.8485 113.452 30 111.783 30Z" fill="#F37513"/>
<path d="M146.922 23.2576V29.4697H134.938V23.2576H136.531V17.0455C136.531 16.2121 136.354 15.6061 136 15.2273C135.646 14.8232 135.115 14.6212 134.407 14.6212C132.89 14.6212 132.131 15.4293 132.131 17.0455V23.2576H133.724V29.4697H121.739V23.2576H123.408V6.21212H121.739V0H132.131V11.3636C133.067 10.202 134.078 9.33081 135.165 8.75C136.252 8.16919 137.517 7.87879 138.958 7.87879C141.056 7.87879 142.624 8.53535 143.661 9.84849C144.723 11.1616 145.253 12.9672 145.253 15.2652V23.2576H146.922Z" fill="#F37513"/>
<path d="M148.223 23.2576H150.119V6.21212H148.223V0H165.631C168.892 0 171.383 0.669192 173.102 2.00758C174.821 3.34596 175.681 5.51768 175.681 8.52273C175.681 10.2146 175.34 11.6793 174.657 12.9167C173.974 14.154 173.001 15.0126 171.737 15.4924L171.775 15.8712C174.202 16.25 175.416 17.7399 175.416 20.3409V23.2576H177.198V29.4697H165.176V20.5682C165.176 19.5833 165.024 18.8384 164.721 18.3333C164.442 17.8283 163.987 17.4874 163.355 17.3106C162.748 17.1338 161.876 17.0455 160.738 17.0455V23.2576H163.241V29.4697H148.223V23.2576ZM162.786 12.4242C163.52 12.4242 164.063 12.2348 164.417 11.8561C164.796 11.452 164.986 10.8333 164.986 10V8.63636C164.986 7.80303 164.796 7.19697 164.417 6.81818C164.063 6.41414 163.52 6.21212 162.786 6.21212H160.738V12.4242H162.786Z" fill="#009EFA"/>
<path d="M189.782 30C186.192 30 183.385 29.0657 181.363 27.197C179.34 25.303 178.329 22.5505 178.329 18.9394C178.329 15.3283 179.34 12.5884 181.363 10.7197C183.385 8.82576 186.192 7.87879 189.782 7.87879C193.347 7.87879 195.914 8.81313 197.481 10.6818C199.074 12.5253 199.871 14.8232 199.871 17.5758V20.303H187.583V20.5303C187.583 21.4646 187.861 22.1591 188.417 22.6136C188.973 23.0429 189.896 23.2576 191.185 23.2576C192.728 23.2576 194.194 23.1439 195.585 22.9167C196.976 22.6894 198.189 22.399 199.226 22.0455V28.1061C198.341 28.5859 197.039 29.0278 195.319 29.4318C193.625 29.8106 191.78 30 189.782 30ZM191.982 16.1364V15.6818C191.982 14.8232 191.792 14.2045 191.413 13.8258C191.059 13.447 190.515 13.2576 189.782 13.2576C189.049 13.2576 188.493 13.4596 188.113 13.8636C187.759 14.2424 187.583 14.8485 187.583 15.6818V16.1364H191.982Z" fill="#009EFA"/>
<path d="M212.339 30C208.723 30 205.904 29.0657 203.881 27.197C201.859 25.303 200.847 22.5505 200.847 18.9394C200.847 15.3283 201.859 12.5884 203.881 10.7197C205.904 8.82576 208.71 7.87879 212.301 7.87879C214.045 7.87879 215.714 8.11869 217.307 8.59849C218.9 9.07828 220.139 9.62121 221.024 10.2273V17.7273H214.501V17.0455C214.501 16.2121 214.324 15.6061 213.97 15.2273C213.616 14.8232 213.059 14.6212 212.301 14.6212C210.834 14.6212 210.101 15.4293 210.101 17.0455V20.303C210.101 22.2727 211.226 23.2576 213.477 23.2576C215.575 23.2576 218.015 23.0303 220.796 22.5758V28.5227C219.937 28.9015 218.723 29.2424 217.155 29.5455C215.613 29.8485 214.007 30 212.339 30Z" fill="#009EFA"/>
<path d="M233.597 30C230.007 30 227.2 29.0657 225.178 27.197C223.155 25.303 222.144 22.5505 222.144 18.9394C222.144 15.3283 223.155 12.5884 225.178 10.7197C227.2 8.82576 230.007 7.87879 233.597 7.87879C237.238 7.87879 240.057 8.83838 242.055 10.7576C244.052 12.6515 245.051 15.3788 245.051 18.9394C245.051 22.5505 244.039 25.303 242.017 27.197C239.994 29.0657 237.188 30 233.597 30ZM233.597 23.2576C234.33 23.2576 234.874 23.0682 235.228 22.6894C235.607 22.2854 235.797 21.6667 235.797 20.8333V17.0455C235.797 16.2121 235.607 15.6061 235.228 15.2273C234.874 14.8232 234.33 14.6212 233.597 14.6212C232.864 14.6212 232.308 14.8232 231.928 15.2273C231.574 15.6061 231.397 16.2121 231.397 17.0455V20.8333C231.397 21.6667 231.574 22.2854 231.928 22.6894C232.308 23.0682 232.864 23.2576 233.597 23.2576Z" fill="#009EFA"/>
<path d="M262.453 7.87879C262.958 7.87879 263.439 7.92929 263.894 8.0303C264.349 8.13131 264.728 8.25758 265.032 8.40909V15.6439C263.995 15.2146 262.882 15 261.694 15C260.101 15 258.875 15.4167 258.015 16.25C257.156 17.0833 256.726 18.3207 256.726 19.9621V23.2576H260.139V29.4697H246.334V23.2576H248.003V14.6212H246.334V8.40909H256.726V11.1742C257.434 10.1136 258.243 9.30556 259.153 8.75C260.063 8.16919 261.163 7.87879 262.453 7.87879Z" fill="#009EFA"/>
<path d="M273.73 30C271.151 30 269.204 29.0404 267.889 27.1212C266.6 25.202 265.955 22.4747 265.955 18.9394C265.955 15.404 266.6 12.6768 267.889 10.7576C269.204 8.83838 271.151 7.87879 273.73 7.87879C275.019 7.87879 276.157 8.19444 277.143 8.82576C278.154 9.45707 278.976 10.1768 279.608 10.9848V6.21212H277.371V0H288.331V23.2576H290V29.4697H279.608V26.8939C278.976 27.702 278.154 28.4217 277.143 29.053C276.157 29.6843 275.019 30 273.73 30ZM277.409 23.2576C278.142 23.2576 278.685 23.0682 279.039 22.6894C279.419 22.2854 279.608 21.6667 279.608 20.8333V17.0455C279.608 16.2121 279.419 15.6061 279.039 15.2273C278.685 14.8232 278.142 14.6212 277.409 14.6212C276.675 14.6212 276.119 14.8232 275.74 15.2273C275.386 15.6061 275.209 16.2121 275.209 17.0455V20.8333C275.209 21.6667 275.386 22.2854 275.74 22.6894C276.119 23.0682 276.675 23.2576 277.409 23.2576Z" fill="#009EFA"/>
</svg>
